<svg width="30" height="30" viewBox="0 0 30 30" fill="none" xmlns="http://www.w3.org/2000/svg">
<circle cx="15" cy="15" r="15" fill="#17BEBB"/>
<g clip-path="url(#clip0_601_2046)">
<path fill-rule="evenodd" clip-rule="evenodd" d="M7.03007 14.5955C11.0577 12.761 13.7428 11.5506 15.0853 10.967C18.9223 9.30013 19.7179 9.00835 20.2372 8.99969C20.3505 8.9968 20.6074 9.02858 20.7732 9.16724C20.914 9.28569 20.9527 9.44458 20.9693 9.55724C20.9859 9.66991 21.0107 9.92702 20.9914 10.1264C20.7842 12.4115 19.8837 17.9524 19.4279 20.5119C19.2345 21.5952 18.8533 21.9564 18.4831 21.9939C17.682 22.0719 17.0715 21.4392 16.2953 20.9077C15.0798 20.0757 14.3919 19.5557 13.2124 18.741C11.8477 17.8021 12.7317 17.285 13.5107 16.4415C13.7151 16.2219 17.2483 12.8592 17.3174 12.553C17.3256 12.5155 17.3339 12.3739 17.2538 12.2988C17.1737 12.2237 17.0549 12.2497 16.9665 12.2699C16.845 12.2988 14.903 13.6421 11.1406 16.297C10.5881 16.6928 10.0908 16.8864 9.64332 16.8748C9.14885 16.8632 8.20134 16.583 7.49692 16.3432C6.63228 16.0486 5.94443 15.8926 6.00244 15.3928C6.03559 15.1328 6.37813 14.867 7.03007 14.5955Z" fill="white"/>
</g>
<defs>
<clipPath id="clip0_601_2046">
<rect width="15" height="13" fill="white" transform="translate(6 9)"/>
</clipPath>
</defs>
</svg>
