<svg width="240" height="240" viewBox="0 0 240 240" fill="none" xmlns="http://www.w3.org/2000/svg">
<g filter="url(#filter0_f_601_1962)">
<circle cx="120" cy="120" r="90" fill="#58F5EF"/>
</g>
<g clip-path="url(#clip0_601_1962)">
<path d="M129.308 106.158V96.8755H110.692V106.158H129.308ZM87.8918 112.033V157.125H152.108V112.033H87.8918ZM150.4 106.158C154.618 106.158 158 109.531 158 113.737V155.421C158 159.627 154.618 163 150.4 163H89.6C85.382 163 82 159.627 82 155.421L82.038 113.737C82.038 109.531 85.382 106.158 89.6 106.158H104.8V98.5789C104.8 94.3726 108.182 91 112.4 91H127.6C131.818 91 135.2 94.3726 135.2 98.5789V106.158H150.4Z" fill="white"/>
<path d="M115.5 100.5L102 95.5L105.5 73L119 81L125.5 91.5L127.5 100L115.5 100.5Z" fill="#58F5EF"/>
<path d="M142 111.254C142 102.834 148.834 96 157.254 96C165.675 96 172.508 102.834 172.508 111.254C172.508 119.675 165.675 126.508 157.254 126.508C148.834 126.508 142 119.675 142 111.254Z" fill="#202030"/>
<path d="M157.727 109.942C155.027 109.256 154.158 108.508 154.158 107.395C154.158 106.113 155.363 105.213 157.361 105.213C159.466 105.213 160.26 106.22 160.321 107.715H162.929C162.853 105.671 161.602 103.795 159.131 103.185V100.576H155.577V103.154C153.273 103.642 151.427 105.137 151.427 107.441C151.427 110.171 153.7 111.544 157.01 112.337C159.985 113.039 160.58 114.091 160.58 115.19C160.58 115.998 159.985 117.31 157.377 117.31C154.936 117.31 153.975 116.212 153.838 114.808H151.214C151.366 117.402 153.288 118.866 155.577 119.339V121.932H159.146V119.385C161.465 118.942 163.295 117.615 163.31 115.159C163.295 111.803 160.412 110.644 157.727 109.942Z" fill="white"/>
<path d="M67.4172 95.3701L67.4149 95.3779L67.4134 95.386C67.0451 97.4439 66.85 99.5023 66.85 101.734C66.85 102.242 67.0532 102.608 67.342 102.845C67.6261 103.077 67.9848 103.178 68.2948 103.178C68.8024 103.178 69.1632 102.976 69.3963 102.743C69.5118 102.627 69.5958 102.505 69.6515 102.395C69.6949 102.31 69.7263 102.222 69.7362 102.148C69.7543 102.122 69.7853 102.086 69.8338 102.04C69.8967 101.981 69.9828 101.912 70.0926 101.837C70.3122 101.687 70.6214 101.517 71.0186 101.358C71.8125 101.039 72.9534 100.762 74.4236 100.762C75.8977 100.762 77.0395 100.991 77.8322 101.286C78.2289 101.434 78.5351 101.597 78.7513 101.753C78.9722 101.912 79.0824 102.053 79.1158 102.149L79.1157 102.149L79.1181 102.155L79.2576 102.1C79.1181 102.155 79.1181 102.155 79.1181 102.156L79.1182 102.156L79.1183 102.156L79.1187 102.157L79.1199 102.16L79.1241 102.17C79.1276 102.178 79.1326 102.189 79.1392 102.204C79.1525 102.232 79.1721 102.272 79.1986 102.319C79.2515 102.413 79.3324 102.538 79.4453 102.664C79.6712 102.916 80.0325 103.178 80.5524 103.178C80.8807 103.178 81.1938 103.016 81.4393 102.819C81.6856 102.621 81.8851 102.372 81.9829 102.164L81.983 102.164L81.9856 102.158C82.2015 101.641 82.6978 101.105 83.4684 100.587C84.2367 100.071 85.265 99.5818 86.5243 99.1546C89.011 98.311 92.3832 97.7131 96.3933 97.6154V128.312C96.3933 130.283 94.773 132.067 92.6373 132.067C90.6657 132.067 88.8813 130.447 88.8813 128.312C88.8813 127.496 88.253 126.868 87.4365 126.868C86.62 126.868 85.9917 127.496 85.9917 128.312C85.9917 132.106 89.0369 135.15 92.8315 135.15C96.6261 135.15 99.6714 132.106 99.6714 128.312V97.6156C103.862 97.7244 107.277 98.3702 109.74 99.2588C110.987 99.7086 111.985 100.219 112.716 100.751C113.449 101.284 113.901 101.829 114.076 102.343L114.082 102.363L114.095 102.38C114.43 102.861 114.768 103.121 115.101 103.221C115.438 103.322 115.746 103.252 116.003 103.124C116.257 102.998 116.469 102.811 116.624 102.664C116.66 102.63 116.691 102.6 116.718 102.573C116.755 102.538 116.786 102.508 116.815 102.481C116.834 102.464 116.848 102.452 116.858 102.444H116.919L116.961 102.365C116.974 102.34 117.008 102.295 117.073 102.234C117.136 102.175 117.222 102.106 117.332 102.031C117.551 101.881 117.861 101.711 118.258 101.552C119.052 101.233 120.193 100.956 121.663 100.956C123.137 100.956 124.279 101.186 125.071 101.48C125.468 101.628 125.774 101.791 125.99 101.947C126.197 102.096 126.306 102.228 126.347 102.324C126.358 102.602 126.515 102.84 126.731 103.008C126.954 103.182 127.252 103.291 127.561 103.305C127.871 103.318 128.199 103.235 128.475 103.016C128.751 102.796 128.964 102.449 129.061 101.957L129.064 101.942V101.928C129.064 89.5931 121.973 78.9488 111.499 73.9193L111.497 73.9186L108.713 72.6241L108.713 72.6238L108.703 72.6198C105.757 71.51 102.638 70.7769 99.3261 70.7553V68.2944C99.3261 67.478 98.6978 66.85 97.8813 66.85C97.0648 66.85 96.4365 67.478 96.4365 68.2944V70.7613C83.055 71.3839 71.9108 80.5111 68.1729 92.8015L68.1725 92.8028L67.4172 95.3701ZM74.4236 97.8728C72.9976 97.8728 71.4091 98.0494 69.9585 98.5365C71.1293 88.1379 78.0304 79.3431 87.6122 75.5377C82.8447 80.6201 79.6917 88.9057 79.1182 98.5672C77.6903 98.2149 76.059 97.8728 74.4236 97.8728ZM98.054 94.5289C92.2201 94.5289 86.0104 95.6021 82.2333 97.9316C82.7308 91.1059 84.6627 85.1107 87.4651 80.8081C90.3092 76.4412 94.0345 73.8378 98.054 73.8378C102.072 73.8378 105.748 76.4876 108.569 80.904C111.347 85.2531 113.279 91.2936 113.87 98.1181C109.912 95.6036 103.702 94.5289 98.054 94.5289ZM121.477 98.067C119.858 97.8796 118.225 98.2148 116.773 98.7397C116.193 89.0829 112.86 80.7866 108.261 75.7283C117.692 79.5247 124.756 88.1589 125.932 98.7166C124.648 98.2209 123.045 98.0676 121.477 98.067Z" fill="black" stroke="black" stroke-width="0.3"/>
</g>
<defs>
<filter id="filter0_f_601_1962" x="0" y="0" width="240" height="240" filterUnits="userSpaceOnUse" color-interpolation-filters="sRGB">
<feFlood flood-opacity="0" result="BackgroundImageFix"/>
<feBlend mode="normal" in="SourceGraphic" in2="BackgroundImageFix" result="shape"/>
<feGaussianBlur stdDeviation="15" result="effect1_foregroundBlur_601_1962"/>
</filter>
<clipPath id="clip0_601_1962">
<rect width="106.78" height="106.78" fill="white" transform="translate(66.6104 66.6104)"/>
</clipPath>
</defs>
</svg>
