<svg width="30" height="30" viewBox="0 0 30 30" fill="none" xmlns="http://www.w3.org/2000/svg">
<circle cx="15" cy="15" r="15" fill="#17BEBB"/>
<path d="M10.6218 12.3047H7.33789V22.9984H10.6218V12.3047Z" fill="white"/>
<path d="M8.93668 10.8735C10.0313 10.8735 10.8734 9.94722 10.8734 8.93674C10.8734 7.92627 10.0313 7 8.93668 7C7.84204 7 7 7.92627 7 8.93674C7 9.94722 7.84204 10.8735 8.93668 10.8735Z" fill="white"/>
<path d="M15.9272 17.3565C15.9272 15.841 16.6009 14.9149 17.9481 14.9149C19.1269 14.9149 19.7164 15.7568 19.7164 17.3565C19.7164 18.8721 19.7164 22.9977 19.7164 22.9977H23.0003C23.0003 22.9977 23.0003 19.1247 23.0003 16.1778C23.0003 13.3151 21.4004 11.8838 19.1269 11.8838C16.8535 11.8838 15.9272 13.6519 15.9272 13.6519V12.2206H12.7275V22.9135H15.9272C15.9272 22.9977 15.9272 19.0405 15.9272 17.3565Z" fill="white"/>
</svg>
