<svg width="141" height="96" viewBox="0 0 141 96" fill="none" xmlns="http://www.w3.org/2000/svg">
<rect width="141" height="96" fill="#E5E5E5"/>
<g clip-path="url(#clip0_601_2)">
<rect width="1440" height="1870" transform="translate(-87 -10)" fill="white"/>
<path d="M99.4332 67.045C99.0849 66.6967 98.8672 66.3048 98.8672 65.7823C98.8672 65.2598 99.0413 64.8679 99.4332 64.5196C99.7816 64.1712 100.261 63.9971 100.827 63.9971C101.393 63.9971 101.872 64.1712 102.22 64.5196C102.568 64.8679 102.786 65.3033 102.786 65.7823C102.786 66.2612 102.612 66.6967 102.22 67.045C101.872 67.3933 101.393 67.5675 100.827 67.5675C100.261 67.5675 99.7816 67.3933 99.4332 67.045ZM102.481 68.656V79.3673H99.2155V68.656H102.481Z" fill="#202030"/>
<path d="M114.368 69.7446C115.108 70.5718 115.5 71.6604 115.5 73.0973V79.3237H112.235V73.5327C112.235 72.836 112.06 72.27 111.668 71.8781C111.277 71.4862 110.798 71.2685 110.188 71.2685C109.578 71.2685 109.056 71.4862 108.708 71.8781C108.316 72.27 108.142 72.836 108.142 73.5327V79.3237H104.876V68.6125H108.142V70.0493C108.49 69.5704 108.925 69.2221 109.491 68.9173C110.057 68.656 110.667 68.5254 111.407 68.5254C112.626 68.5254 113.628 68.9608 114.368 69.7446Z" fill="#202030"/>
<path d="M123.729 76.5805V79.3671H122.075C120.899 79.3671 119.941 79.0623 119.288 78.4963C118.635 77.9303 118.287 76.9723 118.287 75.6661V71.399H116.98V68.6994H118.287V66.0869H121.552V68.6994H123.686V71.399H121.552V75.7096C121.552 76.0144 121.639 76.2757 121.77 76.4063C121.944 76.5369 122.162 76.624 122.554 76.624L123.729 76.5805Z" fill="#202030"/>
<path d="M108.751 86.2468C109.492 87.0741 109.84 88.1626 109.84 89.5995V95.8259H106.574V90.0349C106.574 89.3382 106.4 88.7722 106.008 88.3803C105.616 87.9884 105.137 87.7707 104.528 87.7707C103.918 87.7707 103.396 87.9884 103.047 88.3803C102.656 88.7722 102.481 89.3382 102.481 90.0349V95.8259H99.2158V81.6313H102.481V86.5516C102.83 86.0726 103.265 85.7243 103.831 85.4195C104.397 85.1582 105.05 84.9841 105.747 84.9841C107.01 85.0276 108.011 85.4195 108.751 86.2468Z" fill="#202030"/>
<path d="M112.103 87.5094C112.539 86.6821 113.061 86.029 113.801 85.5936C114.498 85.1581 115.325 84.9404 116.196 84.9404C116.936 84.9404 117.633 85.1146 118.199 85.4194C118.765 85.7242 119.201 86.1161 119.505 86.6386V85.1146H122.771V95.8258H119.505V94.3019C119.201 94.7808 118.722 95.2163 118.156 95.5211C117.59 95.8259 116.936 96 116.153 96C115.282 96 114.498 95.7823 113.758 95.3034C113.061 94.8679 112.495 94.2148 112.06 93.3875C111.624 92.5602 111.45 91.6023 111.45 90.4702C111.494 89.2946 111.668 88.3367 112.103 87.5094ZM118.809 88.5109C118.373 88.0319 117.807 87.8142 117.154 87.8142C116.501 87.8142 115.935 88.0319 115.5 88.5109C115.064 88.9898 114.803 89.5994 114.803 90.4267C114.803 91.254 115.021 91.9071 115.5 92.3861C115.935 92.865 116.501 93.0827 117.154 93.0827C117.807 93.0827 118.373 92.865 118.809 92.3861C119.244 91.9071 119.505 91.254 119.505 90.4702C119.462 89.5994 119.244 88.9463 118.809 88.5109Z" fill="black"/>
<path d="M128.389 81.5879V95.7825H125.123V81.5879H128.389Z" fill="#202030"/>
<path d="M140.798 91.2104H133.396C133.439 91.8636 133.657 92.3861 134.049 92.7344C134.441 93.0827 134.876 93.2569 135.442 93.2569C136.27 93.2569 136.836 92.9086 137.14 92.2119H140.624C140.45 92.9086 140.101 93.5617 139.666 94.1277C139.187 94.6938 138.621 95.1292 137.924 95.434C137.228 95.7388 136.444 95.9129 135.573 95.9129C134.528 95.9129 133.614 95.6952 132.786 95.2598C131.959 94.8244 131.349 94.1713 130.87 93.344C130.392 92.5167 130.174 91.5588 130.174 90.4267C130.174 89.3381 130.392 88.3367 130.87 87.5094C131.306 86.6821 131.959 86.029 132.786 85.5936C133.614 85.1581 134.528 84.9404 135.617 84.9404C136.662 84.9404 137.576 85.1581 138.36 85.5936C139.143 86.029 139.797 86.6386 140.232 87.4659C140.667 88.2496 140.929 89.2075 140.929 90.2961C140.885 90.5573 140.842 90.9057 140.798 91.2104ZM137.532 89.3817C137.532 88.8156 137.358 88.3802 136.966 88.0319C136.574 87.6836 136.095 87.5529 135.529 87.5529C134.963 87.5529 134.528 87.7271 134.136 88.0319C133.744 88.3367 133.527 88.8156 133.439 89.3817H137.532Z" fill="#202030"/>
<path d="M93.5985 85.0278V90.8189C93.5985 91.5155 93.4244 92.038 93.0325 92.4299C92.6841 92.7782 92.2923 92.9524 91.7262 92.996C91.6391 92.996 91.5956 92.996 91.5085 92.996C91.4214 92.996 91.3779 92.996 91.2908 92.996C91.2473 92.996 91.1602 92.996 91.1166 92.996C90.6812 92.9524 90.2893 92.7347 90.0281 92.4735C89.6798 92.0816 89.4621 91.5591 89.4621 90.8624V85.0714H86.1964V91.0366C86.1529 91.6462 85.9787 92.1251 85.6739 92.4735C85.3691 92.8218 84.9337 92.996 84.4112 93.0395C84.3677 93.0395 84.2806 93.0395 84.1935 93.0395C84.1064 93.0395 84.0193 93.0395 83.9758 93.0395C83.7146 93.0395 83.4533 92.9524 83.2356 92.8653C83.0179 92.7782 82.8437 92.6476 82.6696 92.4735C82.3212 92.0816 82.1035 91.5591 82.1035 90.8624V85.0714H78.8379V91.3414C78.8379 92.7782 79.2298 93.8668 80.0135 94.6941C80.2312 94.9118 80.4489 95.1295 80.7102 95.2601C81.4068 95.6955 82.1906 95.8697 83.1485 95.8697C83.1921 95.8697 83.1921 95.8697 83.2356 95.8697C83.2791 95.8697 83.2791 95.8697 83.3227 95.8697C84.2806 95.8697 85.1079 95.6955 85.8481 95.3472C86.5883 94.9989 87.1544 94.5199 87.5898 93.8668C88.0252 94.4328 88.5912 94.9118 89.3314 95.3037C90.0716 95.6955 90.8989 95.8697 91.7698 95.8697C91.9004 95.8697 92.031 95.8697 92.1616 95.8697C92.2487 95.8697 92.3793 95.8697 92.4664 95.8697C93.8162 95.8697 94.8612 95.4778 95.645 94.6505C96.3852 93.9103 96.7771 92.8653 96.8206 91.5591C96.8206 91.472 96.8206 91.3849 96.8206 91.2978V85.0278H93.5985Z" fill="#202030"/>
<path d="M82.06 79.1498V73.3588C82.06 72.6621 82.2341 72.1396 82.626 71.7477C82.9308 71.3994 83.3662 71.2252 83.9323 71.1817C84.0193 71.1817 84.0629 71.1817 84.15 71.1817C84.2371 71.1817 84.2806 71.1817 84.3677 71.1817C84.4112 71.1817 84.4983 71.1817 84.5419 71.1817C84.9773 71.2252 85.3691 71.4429 85.6304 71.7042C85.9787 72.0961 86.1964 72.6186 86.1964 73.3152V79.1498H89.4621V73.1846C89.5056 72.575 89.6798 72.0961 89.9846 71.7477C90.2894 71.3994 90.7248 71.2252 91.2473 71.1817C91.3344 71.1817 91.3779 71.1817 91.465 71.1817C91.5521 71.1817 91.6391 71.1817 91.6827 71.1817C91.9439 71.1817 92.2052 71.2688 92.4229 71.3559C92.6406 71.4429 92.8148 71.5736 92.9889 71.7477C93.3373 72.1396 93.555 72.6621 93.555 73.3588V79.1498H96.8206V72.9234C96.8206 71.4865 96.4287 70.3979 95.645 69.5706C95.4273 69.3529 95.2096 69.1352 94.9483 69.0046C94.2516 68.5692 93.4679 68.395 92.51 68.395C92.4664 68.395 92.4664 68.395 92.4229 68.395C92.3793 68.395 92.3794 68.395 92.3358 68.395C91.3779 68.395 90.5506 68.5692 89.8104 68.9175C89.0702 69.2659 88.5041 69.7448 88.0687 70.3979C87.6333 69.8319 87.0673 69.3529 86.3271 68.9611C85.5868 68.5692 84.7596 68.395 83.8887 68.395C83.7581 68.395 83.6275 68.395 83.4968 68.395C83.4098 68.395 83.2791 68.395 83.1921 68.395C81.8423 68.395 80.7973 68.7869 80.0135 69.6142C79.2733 70.3544 78.8814 71.3994 78.8379 72.7056C78.8379 72.7927 78.8379 72.8798 78.8379 72.9669V79.1498H82.06Z" fill="#202030"/>
<path d="M42.3939 0.295389C68.0399 -2.57836 91.5524 15.8398 94.8616 41.4423C95.1664 43.75 95.297 46.0141 95.2535 48.2348C95.1664 55.0273 88.4174 59.7298 82.0168 57.4656C77.053 55.7239 72.2635 53.3292 67.6045 50.1071C66.037 49.0185 65.5145 48.2348 66.2112 46.2754C70.2606 35.1287 69.9122 24.1127 64.8178 13.3579C64.1212 11.921 63.1632 10.7019 61.9876 9.83102C61.2474 10.0923 61.2474 10.4841 61.3345 10.9196C62.8149 17.8427 59.5928 22.85 54.6726 27.1171C49.4476 31.6454 47.1835 37.6106 46.3997 44.2725C46.2255 45.6223 46.2255 46.8414 44.3532 46.7979C40.1297 46.7544 36.777 48.6267 33.8597 51.5439C32.031 53.3292 29.8974 54.8531 28.2864 56.8125C23.2355 62.9954 16.6172 64.9983 8.69261 64.4323C9.3022 66.5223 10.9568 67.1754 12.5678 67.8285C22.8437 72.0085 33.4678 72.0085 43.0035 67.0012C51.3635 62.6471 56.4578 66.2175 61.7264 71.3554C63.2068 72.7487 64.6872 74.1421 66.2112 75.4483C72.1328 80.5862 70.1735 90.1654 62.7714 92.6473C59.5928 93.7358 56.2401 94.476 52.7568 94.8244C27.1107 97.611 3.68532 79.1929 0.376154 53.5904C-2.93301 27.2912 15.9641 3.25622 42.3939 0.295389Z" fill="url(#paint0_linear_601_2)"/>
<path opacity="0.15" fill-rule="evenodd" clip-rule="evenodd" d="M83.8893 57.9446C85.1956 53.2856 85.631 48.3219 85.0214 43.184C83.4975 30.4698 75.8341 20.0198 65.3406 14.4029C69.956 24.8529 70.1737 35.5206 66.255 46.2754C65.5583 48.2348 66.0808 49.0186 67.6483 50.1071C72.2637 53.3292 77.0968 55.724 82.0606 57.4656C82.6702 57.6833 83.2798 57.8575 83.8893 57.9446ZM61.6831 12.6613C55.9791 10.3535 49.622 9.43917 43.0908 10.2229C22.4085 12.7048 7.64785 31.4713 10.1297 52.1536C10.6522 56.5513 11.9149 60.6877 13.7872 64.4323C19.5347 63.9534 24.4114 61.6456 28.3737 56.8125C29.3751 55.5933 30.5508 54.5919 31.7264 53.5469C32.4666 52.8938 33.2068 52.2406 33.947 51.544C36.8643 48.6267 40.217 46.7544 44.4406 46.7979C46.1822 46.8415 46.3129 45.7529 46.4435 44.4902L46.487 44.2725C47.2708 37.6106 49.4914 31.689 54.76 27.1171C59.2447 23.2419 62.2927 18.7135 61.6831 12.6613ZM16.6174 69.2654C25.6306 71.965 34.7743 71.399 43.0908 67.0448C51.4508 62.6906 56.5452 66.2611 61.8137 71.399C63.2941 72.7923 64.7745 74.1856 66.2985 75.4919C67.4306 76.4934 68.2579 77.6254 68.8239 78.8446C63.9908 82.1538 58.2868 84.3744 52.0604 85.1146C37.7352 86.8563 24.3243 80.325 16.6174 69.2654Z" fill="#9FFFFD"/>
<path opacity="0.15" fill-rule="evenodd" clip-rule="evenodd" d="M73.5695 53.7645C74.2661 50.8036 74.4403 47.7122 74.092 44.5336C73.5259 39.7441 71.6972 35.4334 69.0411 31.8195C68.9976 36.6091 68.0397 41.4857 66.298 46.3189C65.6013 48.2782 66.1238 49.062 67.6913 50.1505C69.6072 51.4568 71.5665 52.6759 73.5695 53.7645ZM58.4605 23.2853C54.1934 21.3695 49.4038 20.5857 44.4401 21.1518C29.8101 22.8934 19.3601 36.1736 21.1017 50.8036C21.5372 54.3741 22.6257 57.6832 24.3238 60.6441C25.7607 59.5991 27.154 58.2928 28.4167 56.7689C29.4182 55.5497 30.5938 54.5482 31.7695 53.5032C32.5097 52.8501 33.2499 52.197 33.9901 51.5003C36.9074 48.583 40.2601 46.7107 44.4836 46.7543C46.2253 46.7978 46.3559 45.7093 46.4865 44.4466L46.5301 44.2289C47.3138 37.567 49.5345 31.6453 54.803 27.0734C56.1092 25.9414 57.372 24.6786 58.4605 23.2853ZM33.5111 70.3539C36.7767 69.7443 39.9988 68.6557 43.1338 67.0447C51.102 62.9082 56.1092 65.9562 61.1165 70.7022C58.0251 72.4874 54.5417 73.7066 50.7972 74.1855C44.4836 74.9257 38.4749 73.4453 33.5111 70.3539Z" fill="#9FFFFD"/>
<path opacity="0.15" fill-rule="evenodd" clip-rule="evenodd" d="M50.3624 32.2548C48.1418 35.8252 47.0097 39.8746 46.4872 44.2723L46.4436 44.49C46.313 45.7527 46.1824 46.8413 44.4407 46.7977C40.2172 46.7542 36.8645 48.6265 33.9472 51.5438C33.5553 51.9356 33.1634 52.284 32.7715 52.6758C32.4232 51.6744 32.2055 50.6294 32.0749 49.5408C31.0299 40.9631 37.1693 33.1692 45.747 32.1677C47.3145 31.95 48.8384 31.9935 50.3624 32.2548Z" fill="#9FFFFD"/>
</g>
<defs>
<linearGradient id="paint0_linear_601_2" x1="75.1078" y1="84.2189" x2="19.1431" y2="9.49784" gradientUnits="userSpaceOnUse">
<stop stop-color="#20CFC3"/>
<stop offset="0.2778" stop-color="#20CBC6"/>
<stop offset="0.5452" stop-color="#20C0CD"/>
<stop offset="0.8076" stop-color="#21ACDA"/>
<stop offset="1" stop-color="#2199E7"/>
</linearGradient>
<clipPath id="clip0_601_2">
<rect width="1440" height="1870" fill="white" transform="translate(-87 -10)"/>
</clipPath>
</defs>
</svg>
