<svg width="56" height="56" viewBox="0 0 56 56" fill="none" xmlns="http://www.w3.org/2000/svg">
<path d="M41.5684 35.1362H41.1458L35.512 22.7887L41.0989 10.4413H41.5214C41.944 10.4413 42.3665 10.2066 42.6012 9.83099C42.836 9.4554 42.836 8.98592 42.6012 8.61033C42.3665 8.23474 41.9909 8 41.5214 8H21.8031C21.3806 8 20.958 8.23474 20.7233 8.61033C20.4886 8.98592 20.4886 9.4554 20.7233 9.83099C20.958 10.2066 21.3336 10.4413 21.8031 10.4413H22.2256L27.8125 22.7887L22.2256 35.1362H21.8031C21.3806 35.1362 20.958 35.3709 20.7233 35.7465C20.4886 36.1221 20.4886 36.5916 20.7233 36.9671C20.958 37.3427 21.3336 37.5775 21.8031 37.5775H41.5214C41.944 37.5775 42.3665 37.3427 42.6012 36.9671C42.836 36.5916 42.836 36.1221 42.6012 35.7465C42.4134 35.3709 41.9909 35.1362 41.5684 35.1362ZM38.4228 10.4413L33.3994 21.5681H30.066L24.9956 10.4413H38.4228ZM30.0191 24.0094H33.3524L38.3759 35.0892H24.9956L30.0191 24.0094Z" fill="white"/>
<path d="M19.2676 33.3523H10.5822C9.12676 33.3523 8 34.526 8 35.9345V44.5729C8 46.0283 9.17371 47.1551 10.5822 47.1551H19.2676C20.723 47.1551 21.8498 45.9814 21.8498 44.5729V35.9345C21.8498 34.526 20.6761 33.3523 19.2676 33.3523ZM12.4131 45.3241H10.3005V41.4274H12.4131V45.3241ZM15.9343 45.3241H13.8216V40.5823H15.9343V45.3241ZM19.5493 45.3241H17.4366V43.1176H19.5493V45.3241ZM20.4413 37.1551L17.7653 39.7373C17.6714 39.8312 17.5775 39.8781 17.4366 39.8781C17.2958 39.8781 17.2019 39.8312 17.108 39.7373L13.7746 35.8875L9.97183 38.7044C9.78404 38.8453 9.4554 38.7983 9.31455 38.6105C9.17371 38.4227 9.22066 38.0941 9.40845 37.9532L13.5399 34.9016C13.7277 34.7607 14.0094 34.8077 14.1502 34.9485L17.4366 38.7514L19.784 36.4978C19.9718 36.31 20.2535 36.31 20.4413 36.4978C20.6291 36.6856 20.6291 36.9673 20.4413 37.1551Z" fill="black"/>
<path d="M47.9998 30.5353H44.2909V26.8264" stroke="black" stroke-width="1.5" stroke-miterlimit="10" stroke-linecap="round" stroke-linejoin="round"/>
<path d="M37.1545 12.2253C39.9245 12.2253 42.4128 13.3051 44.2907 14.9952C46.4034 16.9201 47.671 19.69 47.671 22.7417C47.671 25.7933 46.3564 28.5633 44.2907 30.4882" stroke="black" stroke-width="1.5" stroke-miterlimit="10" stroke-linecap="round" stroke-linejoin="round"/>
<path d="M16.4506 14.9486H20.1595V18.6575" stroke="black" stroke-width="1.5" stroke-miterlimit="10" stroke-linecap="round" stroke-linejoin="round"/>
<path d="M27.2961 33.2582C24.5261 33.2582 22.0379 32.1784 20.1599 30.4882C18.0473 28.5633 16.7797 25.7934 16.7797 22.7417C16.7797 19.6901 18.0942 16.9202 20.1599 14.9953" stroke="black" stroke-width="1.5" stroke-miterlimit="10" stroke-linecap="round" stroke-linejoin="round"/>
</svg>
