<svg width="49" height="35" viewBox="0 0 49 35" fill="none" xmlns="http://www.w3.org/2000/svg">
<rect width="49" height="35" fill="#E5E5E5"/>
<g clip-path="url(#clip0_601_2)">
<rect width="1440" height="1870" transform="translate(-1129 -1292)" fill="white"/>
<rect width="1440" height="746" transform="translate(-1129 -535)" fill="white"/>
<rect x="-283" y="-26" width="360" height="160" rx="16" fill="#9EEDE9"/>
<path d="M32.5 0C25.0517 0 19 5.82759 19 13C19 20.1724 25.0517 26 32.5 26C39.9483 26 46 20.1724 46 13C46 5.82759 39.9483 0 32.5 0ZM32.5 23.7586C26.3086 23.7586 21.281 18.9172 21.281 12.9552C21.281 6.9931 26.3086 2.15172 32.5 2.15172C38.6914 2.15172 43.719 6.9931 43.719 12.9552C43.719 18.9172 38.6914 23.7586 32.5 23.7586Z" fill="white"/>
<path d="M34 7.05634V13.9437C34 14.2817 33.8138 14.6197 33.4878 14.831C33.3016 14.9577 33.0688 15 32.836 15C32.6963 15 32.51 14.9577 32.3703 14.9155L24.6876 11.8732C24.1289 11.662 23.8495 11.0282 24.0823 10.5211C24.3151 10.0141 25.0136 9.76056 25.5723 9.97183L31.6719 12.3803V7.05634C31.6719 6.50704 32.1841 6 32.836 6C33.4878 6.04225 34 6.50704 34 7.05634Z" fill="white"/>
<path d="M42.9178 26.1868C46.2355 26.1868 48.9577 25.3096 48.9577 24.2654C48.9577 23.2212 46.2781 22.344 42.9178 22.344C39.6001 22.344 36.8779 23.2212 36.8779 24.2654C36.9204 25.3096 39.6001 26.1868 42.9178 26.1868ZM40.3657 24.0148L41.1739 23.9312C41.1313 24.0983 41.1313 24.3489 41.3015 24.516C41.4716 24.6831 41.7268 24.7666 41.982 24.7666C42.0671 24.7666 42.1522 24.7666 42.2372 24.7249C42.5775 24.6413 42.7051 24.4742 42.6626 24.1401C42.6201 23.7224 42.7902 23.3882 43.5133 23.2212C43.726 23.1794 43.9386 23.1376 44.1088 23.1376C44.5767 23.0958 45.002 23.2212 45.3423 23.43L46.1079 23.2212L46.3631 23.4718L45.64 23.6388C45.8102 23.8477 45.8527 24.0148 45.8102 24.1819L45.002 24.2654C45.002 24.1818 45.0445 23.973 44.8319 23.7642C44.6617 23.5971 44.4491 23.5553 44.2364 23.5553C44.1513 23.5553 44.0662 23.5553 43.9812 23.5971C43.6409 23.6806 43.5984 23.8477 43.5984 24.1819C43.6409 24.6413 43.3432 24.9337 42.6626 25.1008C42.4499 25.1425 42.2372 25.1843 42.0246 25.1843C41.5567 25.2261 41.0888 25.1008 40.7485 24.8919L39.9404 25.1008L39.6852 24.8502L40.4508 24.6413C40.3657 24.4325 40.2806 24.1819 40.3657 24.0148Z" fill="black"/>
<path d="M36.9201 25.2678V27.1474C36.9201 28.1917 39.5998 29.0688 42.96 29.0688C46.2778 29.0688 49 28.1917 49 27.1474V25.3096C47.8515 26.2285 45.8099 26.7715 42.96 26.7715C40.1528 26.7715 38.1961 26.2285 36.9201 25.2678Z" fill="black"/>
<path d="M36.9201 28.1916V30.0712C36.9201 31.1154 39.5998 31.9926 42.96 31.9926C46.2778 31.9926 49 31.1154 49 30.0712V28.2334C47.8515 29.1523 45.8099 29.6953 42.96 29.6953C40.1528 29.7371 38.1961 29.1523 36.9201 28.1916Z" fill="black"/>
<path d="M36.9201 31.199V33.0786C36.9201 34.1228 39.5998 35 42.96 35C46.2778 35 49 34.1228 49 33.0786V31.2407C47.8515 32.1597 45.8099 32.7027 42.96 32.7027C40.1528 32.7444 38.1961 32.1597 36.9201 31.199Z" fill="black"/>
<path d="M18.4394 5.55289C16.4402 5.55289 16.4402 4.2998 14.4411 4.2998C12.442 4.2998 12.442 5.55289 10.4428 5.55289C8.44369 5.55289 8.44369 4.2998 6.44456 4.2998C4.44542 4.2998 4.44542 5.55289 2.44629 5.55289" stroke="black" stroke-width="1.5" stroke-miterlimit="10" stroke-linecap="round"/>
<path d="M13.7604 11.0659C12.1441 11.0659 12.1441 10.0635 10.5703 10.0635C8.954 10.0635 8.954 11.0659 7.38022 11.0659C5.76389 11.0659 5.76389 10.0635 4.19011 10.0635C2.57379 10.0635 2.57379 11.0659 1 11.0659" stroke="black" stroke-width="1.5" stroke-miterlimit="10" stroke-linecap="round"/>
<path d="M21.4394 16.8722C19.4402 16.8722 19.4402 15.6191 17.4411 15.6191C15.442 15.6191 15.442 16.8722 13.4428 16.8722C11.4437 16.8722 11.4437 15.6191 9.44456 15.6191C7.44542 15.6191 7.44542 16.8722 5.44629 16.8722" stroke="black" stroke-width="1.5" stroke-miterlimit="10" stroke-linecap="round"/>
</g>
<defs>
<clipPath id="clip0_601_2">
<rect width="1440" height="1870" fill="white" transform="translate(-1129 -1292)"/>
</clipPath>
</defs>
</svg>
