<svg width="30" height="30" viewBox="0 0 30 30" fill="none" xmlns="http://www.w3.org/2000/svg">
<circle cx="15" cy="15" r="15" fill="#17BEBB"/>
<path d="M6 20.3879C7.59606 21.4061 9.5468 22 11.6749 22C18.5025 22 22.4039 16.4848 22.1379 11.4788C22.8473 10.9697 23.468 10.3758 24 9.61212C23.3793 9.86667 22.67 10.1212 21.8719 10.2061C22.67 9.78182 23.202 9.10303 23.468 8.25454C22.7586 8.67879 21.9606 8.93333 21.1626 9.10303C20.4532 8.42424 19.5665 8 18.5025 8C16.1084 8 14.335 10.1212 14.867 12.3273C11.7635 12.1576 9.10345 10.8 7.24138 8.67879C6.26601 10.2909 6.70936 12.3273 8.39409 13.4303C7.7734 13.4303 7.24138 13.2606 6.70936 13.0061C6.70936 14.6182 7.86207 16.1455 9.63547 16.4848C9.10345 16.6545 8.57143 16.6545 7.95074 16.5697C8.39409 18.0121 9.81281 19.0303 11.4089 19.0303C9.99015 20.0485 7.95074 20.5576 6 20.3879Z" fill="white"/>
</svg>
